<svg id="logosandtypes_com" xmlns="http://www.w3.org/2000/svg" viewBox="0 0 150 150"><style>.st0{fill:#272425}.st5{fill:#424243}</style><g id="Toyota"><path class="st0" d="M.4 73.1c0 25.5 33.4 46.3 74.5 46.3s74.5-20.8 74.5-46.3S116 26.8 74.9 26.8.4 47.6.4 73.1zm.8 0c0-25.2 33.1-45.6 73.7-45.6s73.8 20.4 73.8 45.6-33.1 45.6-73.8 45.6c-40.7 0-73.7-20.5-73.7-45.6z"/><path class="st0" d="M67.9 35.4C50.8 36.4 38 41 36 46.7c-.2.5-.3 1.1-.3 1.6 0 .9.3 1.8.8 2.7 2.3 4 9.7 7.3 20.3 9.1l.3.1.1-.3c1.8-11 5.8-19.7 11-23.8l.9-.7h-1.2zM37.1 50.7c-.4-.8-.7-1.5-.7-2.3 0-.5.1-1 .3-1.4 1.9-5.3 14.2-9.7 30.2-10.8-4.9 4.4-8.6 12.7-10.4 23.2-10-1.8-17.3-5-19.4-8.7zm-1.1-4zM65.3 60.8l-.1.4h.4c3 .2 6.1.3 9.2.3 3.1 0 6.2-.1 9.2-.3h.4l-.1-.4c-1.6-9.2-5.3-14.9-9.6-14.9-4.1 0-7.7 5.7-9.4 14.9zm9.6-14.2c3.8 0 7.1 5.4 8.7 14-2.9.2-5.8.3-8.7.3s-5.9-.1-8.7-.3c1.5-8.7 4.9-14 8.7-14zM81.7 36c5.2 4.1 9.1 12.8 10.9 23.8l.1.3.3-.1c10.6-1.8 17.9-5.1 20.3-9.1.8-1.4 1-2.9.5-4.3-2.1-5.8-14.8-10.3-31.9-11.3l-1.2-.1 1 .8zm1.2.2c16 1.1 28.4 5.5 30.2 10.8.1.5.3 1 .3 1.4 0 .8-.2 1.5-.7 2.3-2.1 3.6-9.4 6.9-19.5 8.7-1.6-10.5-5.4-18.8-10.3-23.2zM24.6 51.6c-7.7 6.5-11.8 14.2-11.8 22.2 0 19 23.4 35.2 54.5 37.5l1.1.1-.8-.7c-7.1-6-11.5-20.3-11.5-37.1l.1-3.3-.3-.1C38.8 67.1 27 60.1 25.2 51.8l-.2-.6-.4.4zM13.5 73.8c0-7.6 3.8-15 11.1-21.2 2.2 8.2 13.9 15.2 30.7 18.3 0 .5-.1 2.7-.1 2.7 0 16.4 4.2 30.4 10.9 36.9-30-2.6-52.6-18.2-52.6-36.7zM64.4 71.7v.4c0 14.8 4.6 26.3 10.5 26.3 5.8 0 10.4-11.5 10.4-26.3v-.8H85c-3.3.3-6.7.4-10.1.4s-6.8-.1-10.1-.4h-.4v.4zm.7.4c3.2.2 6.5.4 9.8.4s6.6-.1 9.8-.4c0 14.4-4.3 25.6-9.8 25.6-5.5.1-9.8-11.2-9.8-25.6zM124.6 51.8c-1.8 8.2-13.5 15.3-30.7 18.4l-.3.1.1 3.3c0 16.8-4.4 31.1-11.5 37.1l-.8.7 1.1-.1C113.6 109 137 92.9 137 73.8c0-8-4.1-15.7-11.8-22.2l-.5-.4-.1.6zm.6.8c7.3 6.3 11.1 13.6 11.1 21.2 0 18.4-22.6 34.1-52.8 36.6 6.7-6.5 10.9-20.5 10.9-36.9 0 0-.1-2.2-.1-2.7 17-3.1 28.6-10 30.9-18.2z"/><linearGradient id="SVGID_1_" gradientUnits="userSpaceOnUse" x1="74.9445" y1="40.6799" x2="74.9445" y2="93.0198" gradientTransform="matrix(1 0 0 -1 0 150)"><stop offset="0" stop-color="#ced0d1"/><stop offset=".1575" stop-color="#f0f0f1"/><stop offset=".1639" stop-color="#efeff0"/><stop offset=".2592" stop-color="#e7e7e8"/><stop offset=".44" stop-color="#e5e5e6"/><stop offset=".5602" stop-color="#cececf"/><stop offset=".8112" stop-color="#939395"/><stop offset="1" stop-color="#626366"/></linearGradient><path d="M124.7 45.7l.3.9c.4 1.7.3 3.4-.2 5.1 7.5 6.2 12 13.8 12 22.1 0 20.7-27.6 37.4-61.8 37.4-34.1 0-61.8-16.8-61.8-37.4 0-8.2 4.4-15.9 12-22.1-.5-1.6-.6-3.4-.2-5.1.1-.3.2-.6.3-1C14.9 52.9 8.7 62.6 8.7 73c0 22.9 29.6 41.5 66.2 41.5s66.2-18.6 66.2-41.5c0-10.4-6.2-20-16.4-27.3z" fill="url(#SVGID_1_)"/><linearGradient id="SVGID_2_" gradientUnits="userSpaceOnUse" x1="84.3261" y1="85.7778" x2="66.5641" y2="100.6819" gradientTransform="matrix(1 0 0 -1 0 150)"><stop offset="0" stop-color="#e5e5e6"/><stop offset=".44" stop-color="#e5e5e6"/><stop offset=".5602" stop-color="#cececf"/><stop offset=".8112" stop-color="#939395"/><stop offset="1" stop-color="#626366"/></linearGradient><path d="M65.7 60.8l-1.9 1.4c1.6-11.9 6-19.5 11.1-19.5s9.6 7.6 11.1 19.5l-1.9-1.4c-1.6-9-5.1-14.6-9.2-14.6-4.1.1-7.6 5.6-9.2 14.6z" fill="url(#SVGID_2_)"/><linearGradient id="SVGID_3_" gradientUnits="userSpaceOnUse" x1="86.0286" y1="61.251" x2="60.3256" y2="76.0907" gradientTransform="matrix(1 0 0 -1 0 150)"><stop offset="0" stop-color="#e5e5e6"/><stop offset=".44" stop-color="#e5e5e6"/><stop offset=".5602" stop-color="#cececf"/><stop offset=".8112" stop-color="#939395"/><stop offset="1" stop-color="#626366"/></linearGradient><path d="M86.6 68.9L85 71.8v.4c0 14.8-4.5 26-10.1 26S64.8 87 64.8 72.2v-.5L63.2 69c-.1 1-.1 2.1-.1 3.2 0 16.8 5.2 29.4 11.8 29.4 6.5 0 11.8-12.7 11.8-29.4-.1-1.2-.1-2.2-.1-3.3z" fill="url(#SVGID_3_)"/><linearGradient id="SVGID_4_" gradientUnits="userSpaceOnUse" x1="74.9101" y1="80.5645" x2="74.9101" y2="108.9254" gradientTransform="matrix(1 0 0 -1 0 150)"><stop offset="0" stop-color="#e5e5e6"/><stop offset=".44" stop-color="#e5e5e6"/><stop offset=".5602" stop-color="#cececf"/><stop offset=".8112" stop-color="#939395"/><stop offset="1" stop-color="#626366"/></linearGradient><path d="M84.1 60.8c-2.9.2-6 .3-9.2.3-3.2 0-6.3-.1-9.2-.3l-1.9 1.4c3.5.3 7.2.5 11.1.5s7.6-.1 11.1-.5l-1.9-1.4zm33.8-14.5c-2.3-7.6-21.5-13.3-43-13.3s-40.7 5.6-43 13.3c-2 6.6 9 12.8 26.3 15.2l-1.5-1.9c-14-2.3-22.3-7.4-20.4-12.9 2.3-6.6 19.3-11.3 38.6-11.3s36.3 4.7 38.6 11.3c1.9 5.4-6.4 10.5-20.5 12.9l-1.5 1.9c17.4-2.3 28.4-8.5 26.4-15.2z" fill="url(#SVGID_4_)"/><path class="st5" d="M124.8 51.7c2.9 2.3 5.3 4.9 7.1 7.7-.7-4.5-2.5-8.6-5.1-12-.7-.5-1.4-1.1-2.2-1.6l.3.9c.5 1.6.4 3.3-.1 5zM25 51.7c-.5-1.6-.6-3.4-.2-5.1.1-.3.2-.6.3-1-.8.5-1.5 1.1-2.3 1.7-2.6 3.4-4.4 7.6-5.1 12 2-2.7 4.4-5.3 7.3-7.6z"/><linearGradient id="SVGID_5_" gradientUnits="userSpaceOnUse" x1="74.8757" y1="122.7787" x2="74.8757" y2="30.9352" gradientTransform="matrix(1 0 0 -1 0 150)"><stop offset="0" stop-color="#c3c5c7"/><stop offset=".0494" stop-color="#d3d4d5"/><stop offset=".12" stop-color="#e5e5e6"/><stop offset=".1242" stop-color="#e7e7e8"/><stop offset=".1469" stop-color="#eeeeef"/><stop offset=".21" stop-color="#f0f0f1"/><stop offset=".545" stop-color="#f0f0f1"/><stop offset=".6101" stop-color="#ccccce"/><stop offset=".6909" stop-color="#a6a7a9"/><stop offset=".7714" stop-color="#88898b"/><stop offset=".8505" stop-color="#737477"/><stop offset=".9275" stop-color="#66676a"/><stop offset="1" stop-color="#626366"/></linearGradient><path d="M.8 73.1C.8 47.7 34 27.2 74.9 27.2S149 47.8 149 73.1 115.8 119 74.9 119 .8 98.5.8 73.1zm74.1 41.4c36.6 0 66.2-18.6 66.2-41.5s-29.6-41.5-66.2-41.5S8.7 50.1 8.7 73s29.7 41.5 66.2 41.5z" fill="url(#SVGID_5_)"/><path d="M8.3 73c0 23.1 29.9 41.9 66.6 41.9s66.6-18.8 66.6-41.9-29.9-41.9-66.6-41.9C38.2 31.1 8.3 49.9 8.3 73zm.9 0c0-22.6 29.5-41 65.7-41s65.7 18.4 65.7 41-29.5 41-65.7 41S9.2 95.6 9.2 73z" fill="#fff"/><linearGradient id="SVGID_6_" gradientUnits="userSpaceOnUse" x1="74.8757" y1="122.82" x2="74.8757" y2="30.9499" gradientTransform="matrix(1 0 0 -1 0 150)"><stop offset="0" stop-color="#c3c5c7"/><stop offset=".0494" stop-color="#d3d4d5"/><stop offset=".12" stop-color="#e5e5e6"/><stop offset=".1242" stop-color="#e7e7e8"/><stop offset=".1469" stop-color="#eeeeef"/><stop offset=".21" stop-color="#f0f0f1"/><stop offset=".545" stop-color="#f0f0f1"/><stop offset=".6101" stop-color="#ccccce"/><stop offset=".6909" stop-color="#a6a7a9"/><stop offset=".7714" stop-color="#88898b"/><stop offset=".8505" stop-color="#737477"/><stop offset=".9275" stop-color="#66676a"/><stop offset="1" stop-color="#626366"/></linearGradient><path d="M57.5 73.5c0-22.1 7.8-40.5 17.4-40.5s17.4 18.4 17.4 40.5c0 22.3-7.8 40.5-17.4 40.5-9.6 0-17.4-18.1-17.4-40.5zm17.4 28c6.5 0 11.8-12.7 11.8-29.4 0-17.4-5.2-29.4-11.8-29.4-6.5 0-11.8 12-11.8 29.4.1 16.8 5.3 29.4 11.8 29.4z" fill="url(#SVGID_6_)"/><linearGradient id="SVGID_7_" gradientUnits="userSpaceOnUse" x1="74.8757" y1="122.8135" x2="74.8757" y2="30.9422" gradientTransform="matrix(1 0 0 -1 0 150)"><stop offset="0" stop-color="#c3c5c7"/><stop offset=".0494" stop-color="#d3d4d5"/><stop offset=".12" stop-color="#e5e5e6"/><stop offset=".1242" stop-color="#e7e7e8"/><stop offset=".1469" stop-color="#eeeeef"/><stop offset=".21" stop-color="#f0f0f1"/><stop offset=".545" stop-color="#f0f0f1"/><stop offset=".6101" stop-color="#ccccce"/><stop offset=".6909" stop-color="#a6a7a9"/><stop offset=".7714" stop-color="#88898b"/><stop offset=".8505" stop-color="#737477"/><stop offset=".9275" stop-color="#66676a"/><stop offset="1" stop-color="#626366"/></linearGradient><path d="M24.8 46.6c1.9-7.6 25-18.6 50-18.6 25.1 0 47.4 7.8 50 18.6 3 12-19.2 22.8-50 22.8s-53-10.8-50-22.8zm50.1-13.5c-21.5 0-40.7 5.6-43 13.3-2.6 8.6 16.5 16.4 43 16.4s45.6-7.8 43-16.4c-2.3-7.7-21.5-13.3-43-13.3z" fill="url(#SVGID_7_)"/><linearGradient id="SVGID_8_" gradientUnits="userSpaceOnUse" x1="74.8757" y1="103.7662" x2="74.8757" y2="77.5815" gradientTransform="matrix(1 0 0 -1 0 150)"><stop offset=".0056" stop-color="#e5e5e6"/><stop offset="1" stop-color="#6d6e6f"/></linearGradient><path d="M63.2 68.9l1.6 2.8c3.2.3 6.6.4 10.1.4s6.9-.1 10.1-.4l1.6-2.8c-3.7.3-7.6.5-11.7.5s-8-.1-11.7-.5zm62-19.7c-.3 8.6-13.5 16.2-33.1 19l1.9 2.3c19.1-3.4 31.7-11.8 31.2-21.3zm-100.6 0c-.5 9.5 12.1 17.9 31.1 21.3l1.9-2.3c-19.4-2.8-32.6-10.4-33-19z" fill="url(#SVGID_8_)"/><linearGradient id="SVGID_9_" gradientUnits="userSpaceOnUse" x1="83.9501" y1="122.8173" x2="83.9501" y2="77.8401" gradientTransform="matrix(1 0 0 -1 0 150)"><stop offset="0" stop-color="#e5e5e6"/><stop offset=".44" stop-color="#e5e5e6"/><stop offset=".5602" stop-color="#cececf"/><stop offset=".8112" stop-color="#939395"/><stop offset="1" stop-color="#626366"/></linearGradient><path d="M91.5 61.6l1.5-1.9C90.4 43.8 83.2 33 74.9 33c7.8.1 14.4 12.2 16.6 28.6z" fill="url(#SVGID_9_)"/><linearGradient id="SVGID_10_" gradientUnits="userSpaceOnUse" x1="65.8014" y1="122.8173" x2="65.8014" y2="77.8401" gradientTransform="matrix(1 0 0 -1 0 150)"><stop offset="0" stop-color="#e5e5e6"/><stop offset=".44" stop-color="#e5e5e6"/><stop offset=".5602" stop-color="#cececf"/><stop offset=".8112" stop-color="#939395"/><stop offset="1" stop-color="#626366"/></linearGradient><path d="M58.2 61.6c2.2-16.4 8.9-28.5 16.6-28.5-8.4 0-15.5 10.7-18.1 26.7l1.5 1.8z" fill="url(#SVGID_10_)"/><linearGradient id="SVGID_11_" gradientUnits="userSpaceOnUse" x1="65.2514" y1="122.818" x2="65.2514" y2="48.4351" gradientTransform="matrix(1 0 0 -1 0 150)"><stop offset="0" stop-color="#e5e5e6"/><stop offset=".44" stop-color="#e5e5e6"/><stop offset=".5602" stop-color="#cececf"/><stop offset=".8112" stop-color="#939395"/><stop offset="1" stop-color="#626366"/></linearGradient><path d="M57.5 73.5c0-1.8.1-3.6.1-5.3l-1.9 2.3c0 1-.1 2-.1 3 0 23.6 8.5 40.5 19.2 40.5-9.5 0-17.3-18.1-17.3-40.5z" fill="url(#SVGID_11_)"/><linearGradient id="SVGID_12_" gradientUnits="userSpaceOnUse" x1="84.5" y1="122.818" x2="84.5" y2="48.4351" gradientTransform="matrix(1 0 0 -1 0 150)"><stop offset="0" stop-color="#e5e5e6"/><stop offset=".44" stop-color="#e5e5e6"/><stop offset=".5602" stop-color="#cececf"/><stop offset=".8112" stop-color="#939395"/><stop offset="1" stop-color="#626366"/></linearGradient><path d="M94.1 70.5l-1.9-2.3c.1 1.7.1 3.5.1 5.3 0 22.3-7.8 40.5-17.4 40.5 10.8 0 19.2-16.8 19.2-40.5v-3z" fill="url(#SVGID_12_)"/></g><path d="M0 0h150v150H0V0z" fill="none" id="Layer_3"/></svg>